<?xml version="1.0" encoding="UTF-8"?>
<svg id="Draw" xmlns="http://www.w3.org/2000/svg" viewBox="0 0 1117 1080">
  <defs>
    <style>
      .cls-1 {
        fill: none;
      }

      .cls-1, .cls-2, .cls-3, .cls-4 {
        stroke: #000;
        stroke-miterlimit: 10;
        stroke-width: 8px;
      }

      .cls-2 {
        fill: #059105;
      }

      .cls-3 {
        fill: #004e00;
      }

      .cls-4 {
        fill: #0c9c13;
      }

      .cls-5 {
        fill: #090;
      }

      .cls-6 {
        fill: #006d00;
      }
    </style>
  </defs>
  <g>
    <polygon class="cls-6" points="158.81 576.79 143.31 319.1 552.91 413.42 977.41 334.92 949.74 576.75 553 669.38 158.81 576.79"/>
    <path d="M147.63,324.2l403.58,92.93,1.62,.37,1.63-.3,418.37-77.36-26.74,233.66-393.08,91.78-390.38-91.69-15-249.38m-8.63-10.2l16,266,398,93.48,400.39-93.48,28.61-250-429,79.33-414-95.33h0Z"/>
  </g>
  <g>
    <polygon class="cls-5" points="145.49 311.44 221.79 196.28 554.57 160.97 889.53 211.22 975.02 327.28 553.09 408.91 145.49 311.44"/>
    <path d="M554.48,165l332.81,49.93,80.76,109.62-414.87,80.27-401.19-95.94,72.1-108.82,330.39-35.06m.17-8.06l-335.15,35.56-80.5,121.5,414,99,429-83-90.23-122.49-337.11-50.58h0Z"/>
  </g>
  <polygon class="cls-3" points="232.5 298.5 542.5 365.5 844.5 306.5 830.5 237.5 565.5 194.5 300.5 218.5 232.5 298.5"/>
  <polygon class="cls-2" points="232 598 257.47 1080 424 1080 398 637 232 598"/>
  <polygon class="cls-2" points="862.77 1080 889 595 735 631.14 719 1080 862.77 1080"/>
  <polygon class="cls-4" points="719 1080 424 1080 398 637 553 673.48 735 631 719 1080"/>
  <line class="cls-1" x1="414" y1="208" x2="414" y2="338"/>
  <line class="cls-1" x1="695" y1="215" x2="695" y2="331"/>
</svg>